<svg version="1.1" id="Layer_1" xmlns="http://www.w3.org/2000/svg" x="0" y="0" viewBox="0 0 206.1 52.3" style="enable-background:new 0 0 206.1 52.3" xml:space="preserve"><style>.st0,.st1{fill-rule:evenodd;clip-rule:evenodd;fill:#01b2cc}.st1{fill:#fff}</style><g id="surface1"><path class="st0" d="M43.4 9c.1-.3.5-.3.7-.5.3.1.7.3.8.6 3.3 6.4 6.6 12.8 10 19.2.2.4.3.8.4 1.3v10.3c0 .4-.4.7-.7.6H33.7c-.3 0-.7-.1-.6-.5 0-3.7 0-7.4.1-11.2C36.5 22.3 40 15.7 43.4 9zM42 16.3c-.3.3-.5.8-.7 1.2-1.9 3.6-3.8 7.3-5.7 10.9-.1.2-.1.5-.1.7 5.8 0 11.6.1 17.4 0-2.2-4.3-4.6-8.5-6.8-12.8-1.4-.1-2.7-.1-4.1 0M13.4 21.9c.4 0 .7.1 1.1.2 4.3 1.9 8.8 3.5 13.1 5.2 1.3.5 2.6 1 3.7 1.7.4.8.2 1.7.3 2.5 0 3 .1 5.9 0 8.9-.8.2-1.6.2-2.5.2h-8.7c-.3-.2-.5-.5-.6-.8-2.2-5.8-4.5-11.6-6.8-17.3.2-.2.3-.4.4-.6zm5.5 3.9c-.6.7-1.3 1.3-1.9 1.9-.3.2-.1.6 0 .8 1.4 3.5 2.8 7.1 4.1 10.6h.4c2.9-3 5.9-5.9 8.8-8.9-3-1.3-6.1-2.5-9.2-3.8-.6-.2-1.3-.6-2.2-.6M73.7 22.1c.4-.2.8-.2 1.2-.2.3.4.2.9 0 1.3-2.2 5.6-4.4 11.1-6.6 16.7-.1.3-.4.5-.6.7H57.6c-.4 0-1-.1-.9-.6V29.9c-.1-.7.6-1.1 1.1-1.4 5.3-2.3 10.7-4.1 15.9-6.4zm-6.1 4.1c-3.2 1.3-6.5 2.7-9.7 4 .2.6.8.9 1.2 1.4l7.2 7.2c.2.3.5.3.8.2 1.4-3.5 2.8-7.1 4.2-10.6.1-.2.2-.4 0-.6l-2.1-2.1c-.5.1-1 .3-1.6.5"/><path class="st1" d="M80.6 27.3h4.9v5.9h13.2v-5.9h4.9v15.3h-4.9v-5.8H85.4v5.9h-4.9c.1-5.2.1-10.3.1-15.4M107.6 42V27.3h5v11.3c1.3.5 2.8.5 4.1.6 2.4.1 4.7.1 7.1-.2.7-.1 1.4-.2 2-.4V27.3h5v15.3h-4.9v-1.9c-3 1.1-6.3 1.6-9.5 1.7-3 .2-6 .1-8.8-.4M134.7 27.3h4.9v15.3h-4.9V27.3M145 29.1c2-.7 3.9-1.8 6.1-1.8h10.1c1 0 2 0 3 .4 1.3.4 2.7.9 4 1.3v12.1c-1.4.4-2.7.9-4.1 1.3-1.1.3-2.3.2-3.4.2H153c-2.7 0-5.3-1-7.9-1.5-.1-4-.1-8-.1-12zm4.6 1.5v8.7h13.8v-8.6c-4.6-.1-9.2-.1-13.8-.1M171.9 27.3h6.8c3.1 3.7 6.3 7.2 9.5 10.8V27.3h4.8v15.3h-6.7c-2.5-2.8-5.1-5.6-7.7-8.4-.6-.7-1.4-1.4-1.9-2.2v10.4c-.1.3-.5.1-.7.1h-4.1c0-4.9.1-10.1 0-15.2"/><path class="st0" d="M20.5 42.1c1-.2 2.1 0 3.1-.1 1.7-.1 3.5 0 5.2 0h38c.4 0 .7.1 1.1.1.4.5.4 1.2 0 1.6-.4.1-.7.1-1.1.1H22.9c-.8 0-1.6.1-2.4-.1-.4-.5-.5-1.2 0-1.6"/></g></svg>